<?xml version="1.0" encoding="utf-8"?>
<!-- Generator: Adobe Illustrator 19.0.0, SVG Export Plug-In . SVG Version: 6.00 Build 0)  -->
<svg version="1.0" id="Layer_1" xmlns="http://www.w3.org/2000/svg" xmlns:xlink="http://www.w3.org/1999/xlink" x="0px" y="0px"
	 viewBox="131 -11 188 43" style="enable-background:new 131 -11 188 43;" xml:space="preserve">
<style type="text/css">
	.st0{fill:#FFFFFF;}
</style>
<g>
	<path class="st0" d="M144.9,17c0-3.4,0-6.8,0-10.2c-2,0-4,0-6.1,0c0,3.4,0,6.8,0,10.2c-1.9,0-3.7,0-5.5,0c0-8.4,0-16.8,0-25.2
		c1.8,0,3.6,0,5.5,0c0,3.4,0,6.7,0,10.1c2,0,4,0,6.1,0c0-3.4,0-6.8,0-10.1c1.9,0,3.7,0,5.5,0c0,8.4,0,16.8,0,25.2
		C148.7,17,146.8,17,144.9,17z"/>
	<path class="st0" d="M265,17.1c-1.9,0-3.7,0-5.5,0c0-8.4,0-16.8,0-25.2c0.1,0,0.2,0,0.3,0c3.2,0,6.4,0,9.5,0.1
		c4.9,0.1,6.6,3.4,6.9,6.9c0.2,2-0.1,4-1.1,5.8c-1.2,2-3.2,2.8-5.4,3c-1.5,0.1-3,0-4.6,0C265,10.9,265,14,265,17.1z M265.1,3.5
		c1-0.1,2-0.1,3-0.2c1-0.1,1.7-0.7,2-1.7c0.3-1.1,0.4-2.2,0.1-3.4c-0.2-0.9-0.6-1.7-1.6-2C267.4-4.2,266.2-4,265-4
		C265.1-1.6,265.1,0.9,265.1,3.5z"/>
	<path class="st0" d="M181.7,14.5c-0.3,0.4-0.4,0.6-0.6,0.9c-1.9,2.5-5.6,2.9-7.8,1c-0.9-0.8-1.3-1.7-1.4-2.9
		c-0.4-3.2,0.7-6,4.3-7.1c0.7-0.2,1.4-0.4,2.1-0.5c1-0.2,2.1-0.3,3.2-0.4c-0.1-0.8-0.1-1.6-0.2-2.4c-0.1-0.9-0.5-1.4-1.3-1.5
		c-0.9-0.2-1.7,0.1-2.1,0.9c-0.3,0.6-0.4,1.2-0.6,1.9c-1.5-0.1-3.1-0.3-4.8-0.5c0.2-1.6,0.8-3,2-4.1c1.5-1.4,3.5-1.9,5.6-1.8
		c0.9,0,1.7,0.1,2.5,0.3c2.5,0.7,3.8,2.3,3.8,4.8c0.1,3.3,0.1,6.6,0.1,10c0,1.3,0.1,2.6,0.2,4c-1.4,0-2.9,0-4.5,0
		c-0.1,0-0.3-0.3-0.4-0.4C181.8,16,181.7,15.3,181.7,14.5z M181.3,8.2c-0.6,0.1-1.1,0.2-1.6,0.3c-2.4,0.6-2.9,2.4-2.4,4.4
		c0.3,1.2,1.6,1.6,2.5,0.9c0.4-0.4,0.9-0.9,1.1-1.4C181.4,11,181.3,9.6,181.3,8.2z"/>
	<path class="st0" d="M296.5,5.4c-0.1-0.8-0.1-1.7-0.2-2.5c-0.1-0.7-0.4-1.3-1.2-1.4c-0.8-0.1-1.6,0-2.1,0.8
		c-0.3,0.5-0.4,1.1-0.5,1.6c-0.1,0.3-0.1,0.4-0.5,0.4c-1.5-0.2-3-0.3-4.6-0.4c0.3-2.3,1.3-4,3.4-5c2.4-1.2,4.9-1.3,7.5-0.4
		c2.2,0.8,3.3,2.4,3.3,4.8c0,3.3,0.1,6.7,0.1,10c0,1.3,0.1,2.5,0.1,3.8c-1.4,0-3,0-4.5,0c-0.1,0-0.3-0.2-0.3-0.4
		c-0.1-0.6-0.1-1.2-0.2-1.7c0-0.1,0-0.3,0-0.5c-0.5,0.5-0.9,1.1-1.4,1.6c-1.6,1.5-4.1,1.8-6,0.9c-1.4-0.7-2.3-1.8-2.5-3.4
		c-0.3-2.3,0-4.4,1.8-6c1.1-1,2.4-1.4,3.8-1.7C293.9,5.7,295.1,5.6,296.5,5.4z M296.5,8.2c-1.2,0.1-2.3,0.3-3.2,1
		c-0.4,0.3-0.7,0.8-0.8,1.3c-0.1,0.7-0.2,1.6,0,2.3c0.2,1.2,1.6,1.7,2.6,0.9c0.4-0.3,0.8-0.9,1-1.4C296.6,11,296.5,9.6,296.5,8.2z"
		/>
	<path class="st0" d="M169.2,8.6c-3.3,0-6.5,0-9.8,0c0,1.3-0.1,2.6,0.4,3.9c0.3,0.8,1,1.3,1.8,1.3c0.9,0.1,1.7-0.2,2.2-1
		c0.4-0.6,0.6-1.4,0.9-2.2c1.4,0.1,2.9,0.2,4.4,0.3c0.1,2.2-1.8,5.1-4.1,6c-2.2,0.9-4.5,0.9-6.7-0.1c-1.8-0.8-2.9-2.2-3.5-4
		c-1.2-3.4-1.2-6.8,0.1-10.2c2.2-5.8,9.4-5.8,12.3-2.2c0.4,0.5,0.7,1,0.9,1.5C169.1,4.1,169.2,6.3,169.2,8.6z M164.2,5.6
		c0.1-1.1,0-2.1-0.5-3c-0.4-0.7-1-1.1-1.9-1.1c-0.8,0-1.4,0.3-1.8,1c-0.5,0.9-0.6,2-0.6,3.1c1.4,0,2.7,0,4.1,0
		C163.8,5.6,164,5.6,164.2,5.6z"/>
	<path class="st0" d="M303.7,23.4c0-1.4,0-2.7,0-4c0.9,0,1.8-0.1,2.6-0.1c0.6,0,1-0.4,1.3-0.9c0.5-0.9,0.6-1.7,0.3-2.7
		c-1.7-5.5-3.3-11-4.9-16.5c-0.1-0.2-0.1-0.5-0.2-0.8c0.5,0,1,0,1.4,0c1.1,0,2.2,0,3.2,0c0.4,0,0.6,0.1,0.7,0.5
		c0.7,3.2,1.4,6.5,2.1,9.7c0.1,0.2,0.1,0.5,0.3,0.7c0.8-3.6,1.6-7.3,2.3-11c1.5,0,3,0,4.5,0c-0.4,1.4-0.8,2.7-1.2,4
		c-1.7,5.6-3.4,11.2-5.1,16.9c-0.3,1-0.7,2.1-1.5,2.9c-1.4,1.5-3.1,1.7-5,1.5C304.5,23.6,304.1,23.5,303.7,23.4z"/>
	<path class="st0" d="M283.6,17.1c-1.7,0-3.4,0-5.2,0c0-8.4,0-16.8,0-25.3c1.7,0,3.4,0,5.2,0C283.6,0.2,283.6,8.6,283.6,17.1z"/>
	<path class="st0" d="M200.3,3.3c-0.3,0-0.5,0-0.8,0c-1.7,0-2.8,0.7-3.3,2.3c-0.3,1.1-0.5,2.3-0.6,3.4c-0.1,2.5,0,5,0,7.4
		c0,0.2,0,0.4,0,0.7c-1.7,0-3.4,0-5.2,0c0-6.2,0-12.4,0-18.7c1.5,0,3,0,4.5,0c0,1.3,0,2.6,0,4h0.1c0.1-0.2,0.2-0.5,0.3-0.7
		c0.4-1,0.8-1.9,1.7-2.7c0.8-0.7,1.8-1,2.9-0.9c0.1,0,0.4,0.2,0.4,0.3C200.3,0.1,200.3,1.7,200.3,3.3z"/>
	<path class="st0" d="M254.1,17.1c-0.5,0-1,0-1.6,0c0-1.1,0-2.1,0-3.2c-0.5,0.6-1,1.3-1.5,1.8c-2.6,2.7-8.3,2.8-11-1.6
		c-1.5-2.4-1.8-5.1-1.4-7.9c0.3-2.4,1.3-4.5,3.1-6.1c3-2.5,7.7-2.2,10,0.6c0.2,0.2,0.3,0.4,0.6,0.8c0-3.9,0-7.6,0-11.4
		c0.6,0,1.2,0,1.8,0C254.1-0.9,254.1,8.1,254.1,17.1z M252.4,7.9c-0.1-1.3-0.1-2.6-0.5-3.8c-0.6-2.3-2.6-3.9-4.9-4.1
		c-2.3-0.2-4.5,0.9-5.6,3.1c-1.2,2.2-1.4,4.5-1,6.9c0.3,1.9,1,3.6,2.5,4.8c3,2.4,7.5,1.1,8.9-2.7C252.4,10.7,252.3,9.3,252.4,7.9z"
		/>
	<path class="st0" d="M212.5,14.9c-0.4,0.3-0.8,0.6-1.3,1c-1.9,1.6-4,2-6.3,1.4c-4.2-1.2-4.2-6.3-2.2-8.5c1.4-1.5,3.1-2.2,5-2.5
		c1.5-0.2,3-0.3,4.5-0.5c0-1.5-0.1-3-1-4.2c-0.8-1.1-2-1.5-3.3-1.5c-1.7,0-3.2,0.4-4.6,1.3c-0.8-1.6-0.9-1.3,0.6-2
		c1.9-0.9,3.9-1.1,6-0.7c2.2,0.5,3.7,2.3,4,4.9C214,4.3,214,5,214,5.8c0,3.3,0.1,6.6,0.1,9.8c0,0.5,0.1,1,0.1,1.5
		c-0.5,0-1.1,0-1.6,0C212.7,16.2,212.6,15.4,212.5,14.9z M212.5,7.3c-1.3,0.1-2.4,0.1-3.5,0.2c-1.7,0.2-3.3,0.7-4.6,2
		c-1.9,2-1,5.6,1.6,6.3c2.6,0.7,5.7-1.1,6.2-3.7C212.5,10.6,212.4,9,212.5,7.3z"/>
	<path class="st0" d="M234,17.1c-0.6,0-1.2,0-1.8,0c0-0.2,0-0.5,0-0.7c0-3.3,0-6.7,0-10c0-0.9-0.1-1.7-0.3-2.6
		c-0.8-3.7-4.9-5.1-7.9-2.6c-1.5,1.2-2.3,2.8-2.3,4.8c0,3.5,0,6.9,0,10.4c0,0.2,0,0.5,0,0.8c-0.6,0-1.2,0-1.9,0c0-6,0-12.1,0-18.2
		c0.5,0,1,0,1.7,0c0,1,0,2.1,0,3.1c0.6-0.7,1.1-1.4,1.7-1.9c2.1-1.8,4.5-2.1,7-1.1s3.6,3.1,3.7,5.7c0.2,3.3,0.1,6.6,0.1,10
		C234,15.4,234,16.2,234,17.1z"/>
	<path class="st0" d="M232,28.3c-0.2,0-0.4,0-0.6,0c0-2,0-4,0-6c0.5-0.1,0.5-0.1,0.6,0.9c0.5-0.7,1.1-1.1,1.9-1.1
		c0.8,0,1.4,0.5,1.7,1.2c0.1-0.2,0.3-0.3,0.4-0.4c0.6-0.7,1.3-0.9,2.2-0.7c0.9,0.2,1.3,0.9,1.4,1.7c0.1,1.4,0.1,2.8,0.1,4.2
		c0,0.1-0.3,0.3-0.5,0.4c-0.1,0-0.1-0.1-0.2-0.1c0-0.9,0-1.7,0-2.6c0-0.6,0-1.1,0-1.7c-0.1-1-0.7-1.5-1.5-1.4
		c-0.8,0-1.5,0.6-1.6,1.5c-0.1,0.8,0,1.6-0.1,2.5c0,0.4,0,0.8,0,1.3c0,0.2,0,0.6-0.3,0.5c-0.1,0-0.3-0.3-0.3-0.4c0-1,0-2,0-2.9
		c0-0.2,0-0.4,0-0.6c-0.1-1-0.5-1.7-1.3-1.7c-0.8-0.1-1.6,0.6-1.8,1.5c-0.1,0.4-0.1,0.8-0.1,1.3C231.9,26.3,232,27.3,232,28.3z"/>
	<path class="st0" d="M296.8,28.3c-0.2,0-0.4,0-0.6,0c0-0.8,0-1.6,0-2.4c0-0.6,0-1.2,0-1.7c-0.1-1.1-0.6-1.6-1.5-1.5
		c-0.8,0-1.6,0.8-1.6,1.7c0,1.2,0,2.4,0,3.5c0,0.1,0,0.2,0,0.4c-0.2,0-0.4,0-0.6,0.1c0-0.8,0-1.5,0-2.2c0-0.6,0-1.1,0-1.7
		c-0.1-1.2-0.6-1.8-1.5-1.8c-0.9,0-1.7,0.8-1.7,1.9c0,1.1,0,2.2,0,3.2c0,0.2,0.1,0.6-0.3,0.6c-0.4,0-0.3-0.3-0.3-0.6
		c0-1.7,0-3.5,0-5.2c0-0.2,0.2-0.3,0.3-0.4c0.1,0,0.1,0.1,0.2,0.1c0,0.3,0,0.6,0.1,1c0.5-0.8,1.1-1.2,1.9-1.2c0.9,0,1.4,0.5,1.8,1.2
		c0.6-0.9,1.3-1.4,2.4-1.2c0.9,0.2,1.5,0.8,1.6,1.9C296.9,25.4,296.8,26.8,296.8,28.3z"/>
	<path class="st0" d="M197.8,27.4c-0.3,0.9-0.3,0.9-0.7,0.9c0-3,0-6,0-9c0.2,0,0.4,0,0.6,0c0,1.3,0,2.5,0,3.9
		c0.3-0.3,0.4-0.4,0.6-0.6c1.2-1,3.1-0.5,3.8,0.9c0.6,1.2,0.6,2.4,0,3.5c-0.8,1.7-2.9,2-4.2,0.6C197.8,27.6,197.8,27.5,197.8,27.4z
		 M197.6,25.3L197.6,25.3c0.1,0.2,0.1,0.5,0.1,0.7c0,0.9,0.7,1.7,1.5,1.9c1,0.2,1.8-0.2,2.2-1.1c0.5-1,0.5-2.1,0-3.1
		c-0.3-0.7-0.9-1.1-1.7-1.1s-1.5,0.4-1.8,1.1C197.7,24.2,197.7,24.8,197.6,25.3z"/>
	<path class="st0" d="M173.2,27.5c0,1.2,0,2.3,0,3.4c-0.2,0-0.4,0-0.6,0c0-2.9,0-5.7,0-8.6c0.5-0.1,0.5-0.1,0.6,0.9
		c0.2-0.2,0.3-0.3,0.4-0.4c1.1-1.1,3.1-0.9,3.9,0.5c0.5,1,0.6,2,0.3,3.1C177.3,28.5,174.8,29.2,173.2,27.5z M173.2,25.3L173.2,25.3
		c0.1,0.2,0,0.4,0.1,0.7c0,0.9,0.7,1.7,1.5,1.9c0.9,0.2,1.8-0.2,2.2-1c0.5-1,0.5-2.1,0-3.1c-0.4-0.8-1-1.2-1.9-1.1
		c-0.8,0-1.6,0.6-1.8,1.4C173.3,24.4,173.3,24.9,173.2,25.3z"/>
	<path class="st0" d="M186,28.2c-0.7,0.3-0.5-0.3-0.6-0.6c-0.5,0.3-1,0.6-1.5,0.7c-0.9,0.3-1.8-0.2-2.1-0.9
		c-0.4-0.9-0.1-1.9,0.7-2.3c0.6-0.3,1.3-0.4,1.9-0.6c0.2-0.1,0.5,0,0.8,0c0.1-0.6,0-1.2-0.5-1.6c-0.8-0.6-1.6-0.3-2.5,0.1
		c0-0.2,0-0.5,0-0.5c0.7-0.5,1.5-0.6,2.3-0.3c0.7,0.2,1.1,0.7,1.2,1.5c0.1,0.4,0.1,0.8,0.1,1.2C186,25.9,186,27.1,186,28.2z
		 M185.3,25.1c-0.9-0.1-1.9,0.1-2.4,0.5s-0.7,0.9-0.6,1.5c0.1,0.5,0.4,0.7,0.8,0.9c0.9,0.3,1.9-0.4,2.1-1.3
		C185.3,26.1,185.3,25.6,185.3,25.1z"/>
	<path class="st0" d="M287,25.2c-0.8,0-1.6,0-2.3,0c-0.7,0-1.4,0-2.1,0c-0.4,2,1.2,3.1,3.8,2.4c0.3,0.3,0.2,0.5-0.2,0.6
		c-2.2,0.7-4.3-0.1-4.3-2.9c0-0.6,0.2-1.3,0.4-1.9c0.5-1.1,1.5-1.6,2.7-1.4c1,0.2,1.7,0.9,1.9,2.1C287,24.4,287,24.8,287,25.2z
		 M286.4,24.6c-0.1-1.4-0.8-2.1-1.8-2.1s-1.9,1.2-1.8,2.1C283.9,24.6,285.1,24.6,286.4,24.6z"/>
	<path class="st0" d="M223,28.3c-0.1,0-0.3,0-0.5,0c0-0.2-0.1-0.4-0.1-0.6c-0.5,0.2-0.9,0.6-1.4,0.7c-1,0.3-1.9-0.1-2.2-1
		s0-1.9,0.9-2.4c0.6-0.3,1.2-0.4,1.9-0.5c0.2-0.1,0.5,0,0.7,0c0.1-0.6,0-1.2-0.5-1.6c-0.8-0.6-1.7-0.3-2.5,0.1
		c-0.1,0-0.1-0.1-0.2-0.1c0.1-0.2,0.1-0.4,0.3-0.5c1.7-1,3.4-0.1,3.5,1.8C223,25.5,223,26.9,223,28.3z M222.3,24.9
		c-0.9,0.2-1.6,0.4-2.3,0.7c-0.6,0.2-0.7,0.8-0.6,1.4c0.1,0.5,0.4,0.8,0.8,0.9c0.9,0.3,2-0.4,2.1-1.4
		C222.4,26,222.3,25.6,222.3,24.9z"/>
	<path class="st0" d="M217.7,25.2c-1.5,0-2.9,0-4.3,0c-0.2,2.2,1,2.9,3.9,2.4c0,0.1,0.1,0.3,0.1,0.5c-0.7,0.1-1.3,0.3-1.9,0.3
		c-1.5,0-2.6-1-2.7-2.4c-0.1-0.8,0-1.6,0.2-2.3c0.4-1.2,1.5-1.9,2.8-1.7c1.1,0.2,1.8,1,1.9,2.3C217.7,24.6,217.7,24.9,217.7,25.2z
		 M213.4,24.6c1.3,0,2.5,0,3.7,0c0-1.2-0.6-2-1.6-2.1C214.3,22.5,213.5,23.3,213.4,24.6z"/>
	<path class="st0" d="M186.9,22.2c0.5-0.2,0.7,0,0.8,0.4c0.6,1.6,1.2,3.1,1.8,4.8c0.2-0.6,0.4-1.1,0.6-1.6c0.4-1,0.8-2.1,1.1-3.2
		c0.1-0.4,0.3-0.6,0.8-0.4c-0.3,0.7-0.5,1.3-0.8,2c-0.6,1.5-1.2,3-1.8,4.5c-0.4,1-1.1,2-2.3,2.4c-0.1-0.1-0.2-0.3-0.1-0.3
		c0.6-0.7,1.2-1.3,1.7-2c0.3-0.4,0.3-0.9,0.1-1.4c-0.6-1.6-1.2-3.2-1.9-4.7C187,22.6,187,22.4,186.9,22.2z"/>
	<path class="st0" d="M203,22.2c0.5-0.2,0.7,0,0.9,0.4c0.6,1.5,1.2,3,1.8,4.7c0.1-0.2,0.2-0.3,0.2-0.5c0.5-1.4,1-2.8,1.5-4.2
		c0.1-0.4,0.3-0.6,0.8-0.4c-0.3,0.7-0.5,1.4-0.8,2.1c-0.6,1.5-1.2,3.1-1.9,4.6c-0.4,1-1,1.8-2.1,2.2l-0.1-0.1
		c-0.1-0.1-0.1-0.3-0.2-0.4c0.9-0.4,1.5-1.1,1.9-1.9c0.2-0.4,0.2-0.7,0.1-1.1C204.4,25.8,203.7,24.1,203,22.2z"/>
	<path class="st0" d="M268,31.1c-0.1-0.1-0.1-0.3-0.2-0.5c0.1,0,0.1-0.1,0.1-0.1c0.4-0.3,0.8-0.6,1.2-0.9c0.7-0.7,0.9-1.5,0.5-2.5
		c-0.7-1.6-1.3-3.2-1.9-4.8c0.5-0.2,0.7,0,0.8,0.4c0.6,1.5,1.2,3.1,1.8,4.7c0.2-0.6,0.4-1.1,0.6-1.6c0.4-1.1,0.8-2.1,1.2-3.2
		c0.1-0.4,0.3-0.5,0.7-0.4c0,0.1,0,0.2,0,0.3c-0.8,2-1.6,4-2.4,6c-0.4,1.1-1,2.1-2.2,2.6C268.2,31.1,268.1,31.1,268,31.1z"/>
	<path class="st0" d="M241.6,22.2c0.4-0.2,0.6,0.1,0.6,0.5c0,1.2,0,2.3,0,3.5c0.1,1.2,0.6,1.8,1.6,1.8s1.8-0.9,1.8-2
		c0-1.2,0-2.5,0-3.7c0.2,0,0.4,0,0.6,0c0,0.1,0.1,0.2,0.1,0.3c0,1.8,0,3.7,0,5.5c0,0.1-0.3,0.3-0.4,0.4l-0.1-0.1
		c0-0.3,0-0.5-0.1-0.9c-0.3,0.3-0.5,0.5-0.7,0.7c-1.4,1-3.1,0.3-3.3-1.4C241.5,25.2,241.6,23.7,241.6,22.2z"/>
	<path class="st0" d="M259.7,22.4c-0.1,0.2-0.1,0.3-0.2,0.5c-0.1,0-0.2,0-0.3-0.1c-1.3-0.5-2.4-0.2-3.1,0.7c-0.7,1-0.7,2.7,0.1,3.6
		C257,28,258,28,259,27.7c0.4-0.1,0.6-0.1,0.5,0.4c-1.4,0.7-3.1,0.5-3.9-0.6c-0.9-1.2-0.9-3.2,0.1-4.4
		C256.7,22,258.4,21.7,259.7,22.4z"/>
	<path class="st0" d="M276.9,22.4c-0.1,0.2-0.1,0.3-0.2,0.5c-0.1,0-0.1,0-0.2,0c-0.4-0.1-0.8-0.2-1.2-0.2c-0.5,0-0.8,0.3-1,0.8
		c-0.1,0.5,0.1,0.8,0.5,1.1c0.4,0.2,0.8,0.4,1.2,0.6c0.9,0.5,1.2,1.1,1,1.9c-0.2,0.9-0.9,1.5-2,1.5c-0.5,0-1-0.2-1.6-0.3
		c0.1-0.3,0.2-0.4,0.2-0.6c0.1,0,0.2,0.1,0.3,0.1c0.4,0.1,0.7,0.3,1.1,0.3c0.7,0.1,1.2-0.3,1.4-0.8c0.2-0.6-0.1-1.1-0.7-1.5
		c-0.5-0.2-1-0.4-1.4-0.7c-1-0.7-0.8-2.1,0.2-2.6C275.4,21.9,276.1,22,276.9,22.4z"/>
	<path class="st0" d="M263.3,28.1c0.1-0.3,0.2-0.4,0.2-0.5c0.6,0.1,1.1,0.2,1.7,0.2c0.5,0,0.9-0.3,1.1-0.8c0.1-0.5,0-1-0.5-1.3
		c-0.3-0.2-0.7-0.4-1.1-0.5c-1-0.5-1.4-1.2-1.1-2c0.2-0.8,1.2-1.3,2.1-1.1c0.3,0.1,0.6,0.2,1,0.3c-0.1,0.2-0.2,0.4-0.2,0.4
		c-0.5-0.1-1-0.2-1.4-0.2c-0.5,0-0.8,0.3-1,0.8c-0.1,0.5,0,0.9,0.5,1.1c0.3,0.2,0.7,0.3,1.1,0.5c1,0.5,1.4,1.3,1.1,2.2
		c-0.2,0.8-1.2,1.4-2.2,1.2C264.3,28.4,263.8,28.2,263.3,28.1z"/>
	<path class="st0" d="M251.1,22.8c-0.6-0.1-1.1-0.2-1.6-0.2s-0.8,0.3-0.9,0.8c-0.1,0.4,0,0.8,0.4,1.1c0.4,0.2,0.7,0.4,1.1,0.6
		c1,0.5,1.4,1.2,1.1,2.2c-0.2,0.8-1,1.4-2.1,1.3c-0.5,0-1-0.2-1.5-0.3c0.1-0.3,0.2-0.4,0.2-0.6c0.1,0,0.1,0,0.2,0
		c0.5,0.1,1,0.3,1.4,0.3c0.5,0,1-0.3,1.1-0.8c0.1-0.6-0.1-1-0.5-1.3c-0.4-0.2-0.8-0.4-1.2-0.6c-1.1-0.6-1.4-1.5-0.8-2.4
		c0.5-0.8,1.8-1,2.7-0.5C251.1,22.4,251,22.6,251.1,22.8z"/>
	<path class="st0" d="M278.9,22.7c-0.4,0-0.7-0.1-1-0.1c0-0.8,0.7-0.3,1-0.6c0.2-0.3-0.4-1.2,0.6-1.2c0,0.4,0,0.8,0,1.3
		c0.5,0,0.9,0,1.3,0c0.1,0,0.2,0.2,0.4,0.2c-0.1,0.1-0.2,0.2-0.4,0.2c-0.4,0-0.8,0-1.3,0c0,1.5,0,3,0,4.5c0,0.6,0.5,0.8,1,0.7
		c0.2,0,0.3,0.1,0.5,0.2c-0.1,0.1-0.3,0.3-0.4,0.3c-1,0.2-1.7-0.3-1.7-1.3c-0.1-1,0-1.9,0-2.9C278.9,23.8,278.9,23.3,278.9,22.7z"/>
	<path class="st0" d="M179.5,19.3c0.2,0,0.4,0,0.6,0c0,0.1,0.1,0.1,0.1,0.2c0,2.8,0,5.6,0,8.4c0,0.1-0.2,0.3-0.3,0.4
		c-0.1-0.1-0.3-0.2-0.3-0.4C179.5,25.1,179.5,22.2,179.5,19.3z"/>
	<path class="st0" d="M225.5,23c0.5-0.3,0.9-0.7,1.5-0.9c0.4-0.2,0.6,0,0.5,0.5c-1.6,0.5-1.9,1-1.9,2.7c0,0.9,0,1.8,0,2.7
		c0,0.1-0.2,0.3-0.3,0.4c-0.1-0.1-0.3-0.2-0.3-0.3c0-1.9,0-3.8,0-5.8c0.2,0,0.3,0,0.5,0C225.5,22.5,225.5,22.8,225.5,23z"/>
	<path class="st0" d="M253.5,28.3c-0.2,0-0.4,0-0.6,0c0-2,0-4,0-6.2c0.3,0.2,0.6,0.3,0.6,0.4C253.6,24.4,253.5,26.3,253.5,28.3z"/>
	<path class="st0" d="M192.6,24.6c1,0,2,0,3,0c0.1,0.4,0.1,0.6-0.4,0.6c-0.7,0-1.5,0-2.2,0C192.6,25.1,192.5,25,192.6,24.6z"/>
	<path class="st0" d="M211.7,24.6c0.1,0.4,0,0.6-0.4,0.6c-0.7,0-1.4,0-2.2,0c-0.4,0-0.6-0.1-0.4-0.6
		C209.8,24.6,210.7,24.6,211.7,24.6z"/>
	<path class="st0" d="M253.2,19.6c0.3,0.3,0.5,0.5,0.5,0.7s-0.3,0.5-0.5,0.5s-0.5-0.3-0.5-0.5S253,19.9,253.2,19.6z"/>
</g>
</svg>
