<?xml version="1.0" encoding="utf-8"?>
<!-- Generator: Adobe Illustrator 19.0.0, SVG Export Plug-In . SVG Version: 6.00 Build 0)  -->
<svg version="1.1" id="Layer_1" xmlns="http://www.w3.org/2000/svg" xmlns:xlink="http://www.w3.org/1999/xlink" x="0px" y="0px"
	 viewBox="-349 285 92.4 43" style="enable-background:new -349 285 92.4 43;" xml:space="preserve">
<style type="text/css">
	.st0{fill:#FF383F;}
	.st1{enable-background:new    ;}
	.st2{fill:#FFFFFF;}
	.st3{font-family:'Rockwell';}
	.st4{font-size:15.7221px;}
	.st5{font-size:8.6148px;}
</style>
<g>
	<g>
		<path class="st0" d="M-839.1,1113.9v9.1c0,0,2.1-0.7,7.7-0.8v2.3l-18.5,2.3l4.6-6.5l-4.6-5
			C-849.9,1115.3-842.2,1113.7-839.1,1113.9z"/>
		<path class="st0" d="M-838.7,1110v12.4c0,0,40.2-3.4,67.6,0V1110C-771,1110-809.3,1105.1-838.7,1110z"/>
		<path class="st0" d="M-770.5,1113.9v9.1c0,0-2.1-0.7-7.7-0.8v2.3l18.5,2.3l-4.6-6.5l4.6-5
			C-759.7,1115.3-767.4,1113.7-770.5,1113.9z"/>
	</g>
	<g>
		<text transform="matrix(1 0 0 1 -812.9401 1096.4368)" class="st2 st3 st4">23</text>
		<text transform="matrix(1 0 0 1 -818.3002 1104.8927)" class="st2 st3 st5">YEARS</text>
	</g>
</g>
<g>
	<g class="st1">
		<path class="st2" d="M-821.8,1116.2c0.2,0.9,0.2,1.3,0.4,2.2c-1.6,0.3-2.4,0.5-4,0.9c-0.1-0.4-0.1-0.8-0.1-1.3
			c0.1-0.4,0.2-0.8,0.4-1.2c0.2-0.4,0.6-0.8,1.1-1.4c0.3-0.3,0.5-0.6,0.6-0.8c0.1-0.2,0.1-0.4,0.1-0.7c-0.1-0.3-0.2-0.5-0.4-0.6
			c-0.2-0.1-0.5-0.2-0.9-0.1c-0.4,0.1-0.7,0.3-0.8,0.5c-0.1,0.3-0.1,0.6,0,1.1c0,0.1,0.1,0.2,0.1,0.3c-0.3,0.1-0.5,0.1-0.9,0.2
			c0-0.1-0.1-0.2-0.1-0.3c-0.2-0.7-0.1-1.2,0.1-1.7c0.2-0.5,0.7-0.8,1.4-0.9c0.7-0.2,1.2-0.1,1.6,0.1c0.4,0.2,0.7,0.6,0.8,1.1
			c0.1,0.4,0,0.8-0.1,1.1c-0.2,0.3-0.5,0.8-1.1,1.3c-0.5,0.6-0.8,1-1,1.3c-0.1,0.3-0.2,0.6-0.2,0.8c0.9-0.2,1.4-0.3,2.4-0.5
			c-0.1-0.6-0.2-0.8-0.3-1.4C-822.2,1116.3-822.1,1116.3-821.8,1116.2z"/>
		<path class="st2" d="M-821,1115.2c-0.2-1-0.1-1.8,0.2-2.5c0.3-0.6,0.8-1,1.6-1.1c0.8-0.1,1.4,0.1,1.9,0.6c0.5,0.5,0.8,1.3,0.9,2.3
			c0.1,1,0.1,1.8-0.3,2.5c-0.3,0.6-0.8,1-1.5,1.1c-0.7,0.1-1.3-0.1-1.8-0.6C-820.5,1116.9-820.8,1116.2-821,1115.2z M-820.1,1115
			c0.2,0.9,0.4,1.5,0.7,1.8c0.3,0.3,0.6,0.5,1,0.4c0.4-0.1,0.7-0.3,0.9-0.7c0.2-0.4,0.2-1.1,0-2c-0.1-0.9-0.4-1.5-0.6-1.9
			c-0.3-0.3-0.7-0.5-1.1-0.4c-0.5,0.1-0.8,0.4-0.9,0.8C-820.2,1113.6-820.2,1114.2-820.1,1115z"/>
		<path class="st2" d="M-815.8,1114.3c-0.1-1,0-1.9,0.3-2.5c0.3-0.6,0.9-1,1.6-1c0.8-0.1,1.4,0.2,1.8,0.7c0.5,0.5,0.7,1.3,0.8,2.3
			c0.1,1-0.1,1.8-0.4,2.4c-0.3,0.6-0.9,0.9-1.5,1c-0.7,0.1-1.3-0.1-1.7-0.7C-815.4,1116.1-815.7,1115.3-815.8,1114.3z
			 M-814.8,1114.2c0.1,0.9,0.3,1.5,0.6,1.9c0.3,0.4,0.6,0.5,1,0.5c0.4,0,0.7-0.3,0.9-0.7c0.2-0.4,0.2-1.1,0.2-2
			c-0.1-0.9-0.3-1.5-0.5-1.9c-0.3-0.4-0.6-0.5-1.1-0.5c-0.5,0.1-0.8,0.3-1,0.8C-814.9,1112.8-814.9,1113.4-814.8,1114.2z"/>
		<path class="st2" d="M-810.6,1113.8c-0.1-1,0.1-1.9,0.5-2.4c0.4-0.6,0.9-0.9,1.7-0.9c0.8,0,1.4,0.2,1.8,0.8
			c0.4,0.6,0.6,1.4,0.7,2.4c0,1-0.2,1.8-0.5,2.4c-0.4,0.6-0.9,0.9-1.6,0.9c-0.7,0-1.3-0.2-1.7-0.8
			C-810.2,1115.5-810.5,1114.8-810.6,1113.8z M-809.6,1113.7c0.1,0.9,0.2,1.5,0.5,1.9c0.2,0.4,0.6,0.5,1,0.5c0.4,0,0.7-0.2,0.9-0.6
			c0.2-0.4,0.3-1,0.3-1.9c0-0.9-0.2-1.6-0.4-1.9c-0.3-0.4-0.6-0.6-1-0.5c-0.5,0-0.8,0.3-1,0.7S-809.6,1112.9-809.6,1113.7z"/>
		<path class="st2" d="M-805.3,1114.1c1.1,0,1.7,0,2.8,0c0,0.3,0,0.5,0,0.9c-1.1,0-1.7,0-2.8,0
			C-805.3,1114.6-805.3,1114.4-805.3,1114.1z"/>
		<path class="st2" d="M-797.6,1114.7c-0.1,0.9-0.1,1.3-0.2,2.2c-1.6-0.1-2.4-0.2-4.1-0.2c0-0.4,0.1-0.8,0.3-1.2
			c0.2-0.4,0.4-0.7,0.7-1c0.3-0.3,0.8-0.6,1.4-1c0.4-0.2,0.7-0.5,0.8-0.6c0.1-0.2,0.2-0.4,0.2-0.6c0-0.3-0.1-0.5-0.3-0.7
			c-0.2-0.2-0.5-0.3-0.8-0.3c-0.4,0-0.7,0.1-0.9,0.3c-0.2,0.2-0.3,0.5-0.3,1c0,0.1,0,0.2,0,0.3c-0.4,0-0.5,0-0.9,0
			c0-0.1,0-0.2,0-0.3c0-0.7,0.2-1.2,0.6-1.6c0.4-0.4,0.9-0.5,1.6-0.5c0.7,0,1.2,0.2,1.5,0.6c0.3,0.4,0.5,0.8,0.5,1.2
			c0,0.4-0.2,0.7-0.4,1c-0.3,0.3-0.7,0.6-1.4,1c-0.6,0.4-1.1,0.7-1.3,1c-0.2,0.3-0.3,0.5-0.4,0.7c1,0,1.5,0.1,2.4,0.1
			c0.1-0.6,0.1-0.9,0.1-1.4C-798.1,1114.6-797.9,1114.6-797.6,1114.7z"/>
		<path class="st2" d="M-796.6,1113.8c0.1-1,0.4-1.8,0.8-2.3c0.5-0.5,1.1-0.8,1.8-0.7c0.8,0.1,1.3,0.4,1.6,1.1
			c0.3,0.6,0.4,1.4,0.3,2.4c-0.1,1-0.4,1.8-0.9,2.3c-0.5,0.5-1,0.7-1.7,0.7c-0.7-0.1-1.2-0.4-1.6-1
			C-796.6,1115.6-796.7,1114.8-796.6,1113.8z M-795.7,1113.9c-0.1,0.9,0,1.5,0.2,2c0.2,0.4,0.5,0.6,0.9,0.7c0.4,0,0.8-0.1,1-0.5
			c0.3-0.4,0.5-1,0.6-1.9c0.1-0.9,0.1-1.6-0.1-2c-0.2-0.4-0.5-0.6-0.9-0.7c-0.5-0.1-0.9,0.1-1.1,0.5
			C-795.4,1112.5-795.6,1113.1-795.7,1113.9z"/>
		<path class="st2" d="M-787.3,1116c-0.2,0.9-0.3,1.3-0.5,2.2c-1.6-0.3-2.4-0.4-4-0.7c0.1-0.4,0.2-0.8,0.4-1.2
			c0.2-0.4,0.5-0.7,0.8-0.9c0.3-0.2,0.8-0.5,1.5-0.9c0.4-0.2,0.7-0.4,0.9-0.5c0.2-0.2,0.3-0.3,0.3-0.6c0.1-0.3,0-0.5-0.2-0.8
			c-0.2-0.2-0.4-0.4-0.8-0.4c-0.4-0.1-0.7,0-0.9,0.2c-0.2,0.2-0.4,0.5-0.4,1c0,0.1,0,0.2,0,0.3c-0.4-0.1-0.5-0.1-0.9-0.1
			c0-0.1,0-0.2,0-0.3c0.1-0.7,0.3-1.2,0.7-1.5c0.4-0.3,0.9-0.4,1.6-0.3c0.7,0.1,1.2,0.4,1.5,0.8c0.3,0.4,0.4,0.8,0.3,1.3
			c-0.1,0.4-0.3,0.7-0.5,0.9c-0.3,0.2-0.8,0.5-1.5,0.8c-0.7,0.3-1.2,0.6-1.4,0.8s-0.4,0.5-0.4,0.7c1,0.1,1.4,0.2,2.4,0.4
			c0.1-0.6,0.2-0.8,0.3-1.4C-787.7,1115.9-787.6,1116-787.3,1116z"/>
		<path class="st2" d="M-784.6,1115.9c0.1-0.3,0.1-0.5,0.2-0.8c0.5,0.1,0.8,0.2,1,0.2c0.2,0,0.4-0.1,0.6-0.2
			c0.2-0.1,0.3-0.3,0.3-0.5c0.1-0.3,0-0.5-0.1-0.8c-0.1-0.2-0.4-0.4-0.7-0.5c-0.4-0.1-0.7,0-0.9,0.1c-0.2,0.2-0.4,0.5-0.5,0.9
			c-0.4-0.1-0.5-0.1-0.9-0.2c0.1-0.7,0.4-1.2,0.9-1.4s0.9-0.3,1.5-0.1c0.7,0.2,1.1,0.4,1.4,0.8c0.3,0.4,0.3,0.8,0.2,1.3
			c-0.1,0.3-0.3,0.6-0.5,0.8c-0.2,0.2-0.5,0.3-0.8,0.3c0.8,0.4,1,1,0.8,1.8c-0.2,0.6-0.5,1-1,1.2c-0.5,0.2-1,0.2-1.6,0.1
			c-0.7-0.2-1.2-0.5-1.5-0.9c-0.3-0.5-0.3-1-0.2-1.7c0.3,0.1,0.5,0.1,0.8,0.2c-0.1,0.5,0,0.9,0.2,1.2c0.2,0.3,0.5,0.5,0.9,0.6
			c0.4,0.1,0.7,0.1,1-0.1c0.3-0.2,0.4-0.4,0.5-0.7c0.1-0.3,0-0.6-0.2-0.9c-0.2-0.3-0.6-0.5-1.2-0.6
			C-784.4,1115.9-784.5,1115.9-784.6,1115.9z"/>
	</g>
</g>
<g>
	<g>
		<path class="st0" d="M-337.1,315.1v9.1c0,0,2.1-0.7,7.7-0.8v2.3l-18.5,2.3l4.6-6.5l-4.6-5C-347.9,316.5-340.2,314.9-337.1,315.1z"
			/>
		<path class="st0" d="M-336.7,311.2v12.4c0,0,40.2-3.4,67.6,0v-12.4C-269,311.2-307.3,306.3-336.7,311.2z"/>
		<path class="st0" d="M-268.5,315.1v9.1c0,0-2.1-0.7-7.7-0.8v2.3l18.5,2.3l-4.6-6.5l4.6-5C-257.7,316.5-265.4,314.9-268.5,315.1z"
			/>
	</g>
	<g>
		<text transform="matrix(1 0 0 1 -310.9401 297.6368)" class="st2 st3 st4">23</text>
		<text transform="matrix(1 0 0 1 -316.3002 306.0927)" class="st2 st3 st5">YEARS</text>
	</g>
</g>
<g>
	<g class="st1">
		<path class="st2" d="M-319.8,317.4c0.2,0.9,0.2,1.3,0.4,2.2c-1.6,0.3-2.4,0.5-4,0.9c-0.1-0.4-0.1-0.8-0.1-1.3
			c0.1-0.4,0.2-0.8,0.4-1.2c0.2-0.4,0.6-0.8,1.1-1.4c0.3-0.3,0.5-0.6,0.6-0.8c0.1-0.2,0.1-0.4,0.1-0.7c-0.1-0.3-0.2-0.5-0.4-0.6
			c-0.2-0.1-0.5-0.2-0.9-0.1c-0.4,0.1-0.7,0.3-0.8,0.5c-0.1,0.3-0.1,0.6,0,1.1c0,0.1,0.1,0.2,0.1,0.3c-0.3,0.1-0.5,0.1-0.9,0.2
			c0-0.1-0.1-0.2-0.1-0.3c-0.2-0.7-0.1-1.2,0.1-1.7c0.2-0.5,0.7-0.8,1.4-0.9c0.7-0.2,1.2-0.1,1.6,0.1c0.4,0.2,0.7,0.6,0.8,1.1
			c0.1,0.4,0,0.8-0.1,1.1c-0.2,0.3-0.5,0.8-1.1,1.3c-0.5,0.6-0.8,1-1,1.3c-0.1,0.3-0.2,0.6-0.2,0.8c0.9-0.2,1.4-0.3,2.4-0.5
			c-0.1-0.6-0.2-0.8-0.3-1.4C-320.2,317.5-320.1,317.5-319.8,317.4z"/>
		<path class="st2" d="M-319,316.4c-0.2-1-0.1-1.8,0.2-2.5c0.3-0.6,0.8-1,1.6-1.1c0.8-0.1,1.4,0.1,1.9,0.6c0.5,0.5,0.8,1.3,0.9,2.3
			c0.1,1,0.1,1.8-0.3,2.5c-0.3,0.6-0.8,1-1.5,1.1c-0.7,0.1-1.3-0.1-1.8-0.6C-318.5,318.1-318.8,317.4-319,316.4z M-318.1,316.2
			c0.2,0.9,0.4,1.5,0.7,1.8c0.3,0.3,0.6,0.5,1,0.4c0.4-0.1,0.7-0.3,0.9-0.7c0.2-0.4,0.2-1.1,0-2c-0.1-0.9-0.4-1.5-0.6-1.9
			c-0.3-0.3-0.7-0.5-1.1-0.4c-0.5,0.1-0.8,0.4-0.9,0.8C-318.2,314.8-318.2,315.4-318.1,316.2z"/>
		<path class="st2" d="M-313.8,315.5c-0.1-1,0-1.9,0.3-2.5c0.3-0.6,0.9-1,1.6-1c0.8-0.1,1.4,0.2,1.8,0.7c0.5,0.5,0.7,1.3,0.8,2.3
			c0.1,1-0.1,1.8-0.4,2.4c-0.3,0.6-0.9,0.9-1.5,1c-0.7,0.1-1.3-0.1-1.7-0.7C-313.4,317.3-313.7,316.5-313.8,315.5z M-312.8,315.4
			c0.1,0.9,0.3,1.5,0.6,1.9c0.3,0.4,0.6,0.5,1,0.5c0.4,0,0.7-0.3,0.9-0.7c0.2-0.4,0.2-1.1,0.2-2c-0.1-0.9-0.3-1.5-0.5-1.9
			c-0.3-0.4-0.6-0.5-1.1-0.5c-0.5,0.1-0.8,0.3-1,0.8C-312.9,314-312.9,314.6-312.8,315.4z"/>
		<path class="st2" d="M-308.6,315c-0.1-1,0.1-1.9,0.5-2.4c0.4-0.6,0.9-0.9,1.7-0.9c0.8,0,1.4,0.2,1.8,0.8c0.4,0.6,0.6,1.4,0.7,2.4
			c0,1-0.2,1.8-0.5,2.4c-0.4,0.6-0.9,0.9-1.6,0.9c-0.7,0-1.3-0.2-1.7-0.8C-308.2,316.7-308.5,316-308.6,315z M-307.6,314.9
			c0.1,0.9,0.2,1.5,0.5,1.9c0.2,0.4,0.6,0.5,1,0.5c0.4,0,0.7-0.2,0.9-0.6c0.2-0.4,0.3-1,0.3-1.9c0-0.9-0.2-1.6-0.4-1.9
			c-0.3-0.4-0.6-0.6-1-0.5c-0.5,0-0.8,0.3-1,0.7C-307.6,313.5-307.6,314.1-307.6,314.9z"/>
		<path class="st2" d="M-303.3,315.3c1.1,0,1.7,0,2.8,0c0,0.3,0,0.5,0,0.9c-1.1,0-1.7,0-2.8,0C-303.3,315.8-303.3,315.6-303.3,315.3
			z"/>
		<path class="st2" d="M-295.6,315.9c-0.1,0.9-0.1,1.3-0.2,2.2c-1.6-0.1-2.4-0.2-4.1-0.2c0-0.4,0.1-0.8,0.3-1.2
			c0.2-0.4,0.4-0.7,0.7-1c0.3-0.3,0.8-0.6,1.4-1c0.4-0.2,0.7-0.5,0.8-0.6c0.1-0.2,0.2-0.4,0.2-0.6c0-0.3-0.1-0.5-0.3-0.7
			c-0.2-0.2-0.5-0.3-0.8-0.3c-0.4,0-0.7,0.1-0.9,0.3c-0.2,0.2-0.3,0.5-0.3,1c0,0.1,0,0.2,0,0.3c-0.4,0-0.5,0-0.9,0
			c0-0.1,0-0.2,0-0.3c0-0.7,0.2-1.2,0.6-1.6c0.4-0.4,0.9-0.5,1.6-0.5c0.7,0,1.2,0.2,1.5,0.6c0.3,0.4,0.5,0.8,0.5,1.2
			c0,0.4-0.2,0.7-0.4,1c-0.3,0.3-0.7,0.6-1.4,1c-0.6,0.4-1.1,0.7-1.3,1s-0.3,0.5-0.4,0.7c1,0,1.5,0.1,2.4,0.1
			c0.1-0.6,0.1-0.9,0.1-1.4C-296.1,315.8-295.9,315.8-295.6,315.9z"/>
		<path class="st2" d="M-294.6,315c0.1-1,0.4-1.8,0.8-2.3c0.5-0.5,1.1-0.8,1.8-0.7c0.8,0.1,1.3,0.4,1.6,1.1c0.3,0.6,0.4,1.4,0.3,2.4
			c-0.1,1-0.4,1.8-0.9,2.3s-1,0.7-1.7,0.7c-0.7-0.1-1.2-0.4-1.6-1C-294.6,316.8-294.7,316-294.6,315z M-293.7,315.1
			c-0.1,0.9,0,1.5,0.2,2c0.2,0.4,0.5,0.6,0.9,0.7c0.4,0,0.8-0.1,1-0.5c0.3-0.4,0.5-1,0.6-1.9c0.1-0.9,0.1-1.6-0.1-2
			c-0.2-0.4-0.5-0.6-0.9-0.7c-0.5-0.1-0.9,0.1-1.1,0.5C-293.4,313.7-293.6,314.3-293.7,315.1z"/>
		<path class="st2" d="M-285.3,317.2c-0.2,0.9-0.3,1.3-0.5,2.2c-1.6-0.3-2.4-0.4-4-0.7c0.1-0.4,0.2-0.8,0.4-1.2
			c0.2-0.4,0.5-0.7,0.8-0.9c0.3-0.2,0.8-0.5,1.5-0.9c0.4-0.2,0.7-0.4,0.9-0.5c0.2-0.2,0.3-0.3,0.3-0.6c0.1-0.3,0-0.5-0.2-0.8
			c-0.2-0.2-0.4-0.4-0.8-0.4c-0.4-0.1-0.7,0-0.9,0.2c-0.2,0.2-0.4,0.5-0.4,1c0,0.1,0,0.2,0,0.3c-0.4-0.1-0.5-0.1-0.9-0.1
			c0-0.1,0-0.2,0-0.3c0.1-0.7,0.3-1.2,0.7-1.5c0.4-0.3,0.9-0.4,1.6-0.3c0.7,0.1,1.2,0.4,1.5,0.8c0.3,0.4,0.4,0.8,0.3,1.3
			c-0.1,0.4-0.3,0.7-0.5,0.9c-0.3,0.2-0.8,0.5-1.5,0.8c-0.7,0.3-1.2,0.6-1.4,0.8c-0.2,0.2-0.4,0.5-0.4,0.7c1,0.1,1.4,0.2,2.4,0.4
			c0.1-0.6,0.2-0.8,0.3-1.4C-285.7,317.1-285.6,317.2-285.3,317.2z"/>
		<path class="st2" d="M-282.6,317.1c0.1-0.3,0.1-0.5,0.2-0.8c0.5,0.1,0.8,0.2,1,0.2c0.2,0,0.4-0.1,0.6-0.2c0.2-0.1,0.3-0.3,0.3-0.5
			c0.1-0.3,0-0.5-0.1-0.8c-0.1-0.2-0.4-0.4-0.7-0.5c-0.4-0.1-0.7,0-0.9,0.1c-0.2,0.2-0.4,0.5-0.5,0.9c-0.4-0.1-0.5-0.1-0.9-0.2
			c0.1-0.7,0.4-1.2,0.9-1.4c0.4-0.2,0.9-0.3,1.5-0.1c0.7,0.2,1.1,0.4,1.4,0.8c0.3,0.4,0.3,0.8,0.2,1.3c-0.1,0.3-0.3,0.6-0.5,0.8
			c-0.2,0.2-0.5,0.3-0.8,0.4c0.8,0.4,1,1,0.8,1.8c-0.2,0.6-0.5,1-1,1.2c-0.5,0.2-1,0.2-1.6,0.1c-0.7-0.2-1.2-0.5-1.5-0.9
			c-0.3-0.5-0.3-1-0.2-1.7c0.3,0.1,0.5,0.1,0.8,0.2c-0.1,0.5,0,0.9,0.2,1.2c0.2,0.3,0.5,0.5,0.9,0.6c0.4,0.1,0.7,0.1,1-0.1
			s0.4-0.4,0.5-0.7c0.1-0.3,0-0.6-0.2-0.9c-0.2-0.3-0.6-0.5-1.2-0.6C-282.4,317.1-282.5,317.1-282.6,317.1z"/>
	</g>
</g>
</svg>
